<svg width="84" height="86" viewBox="0 0 84 86" fill="none" xmlns="http://www.w3.org/2000/svg">
<path d="M56.0548 53.7433V57.5441C56.5726 57.5441 57.0904 57.5643 57.6049 57.5441C58.4869 57.5004 58.9579 57.8805 59.2352 58.755C61.8176 66.7402 64.4401 74.7152 67.0158 82.7037C67.2497 83.437 67.5403 83.7128 68.3321 83.6791C69.8855 83.6051 71.4457 83.6556 73.0092 83.6589C74.0114 83.6589 74.5325 84.039 74.5492 84.7824C74.5659 85.5257 74.0214 85.9764 72.9757 85.9832C70.6372 85.9832 68.2987 86.0101 65.9601 86.0101H23.0047C20.6416 86.0101 18.2786 86.0011 15.9156 85.9832C14.9835 85.9832 14.4891 85.5661 14.469 84.8362C14.449 84.1063 14.8933 83.6724 15.6851 83.6623C17.3822 83.6623 19.0759 83.6287 20.7731 83.6623C21.3911 83.6623 21.6717 83.5244 21.8788 82.8853C24.4356 75.0078 27.0147 67.1382 29.6161 59.2764C30.184 57.5441 30.184 57.5441 32.0214 57.5374H32.9535V53.7433C32.4022 53.7433 31.8844 53.7433 31.3666 53.7433C30.488 53.7668 30.0002 53.38 29.7731 52.4954C28.1962 46.3905 26.5793 40.2991 25.0058 34.1942C24.8431 33.4924 24.4262 32.8771 23.8365 32.4686C18.8254 28.7687 13.8744 25.0519 8.88998 21.3453C8.30535 20.9114 7.73075 20.4707 8.02473 19.6399C8.29868 18.873 8.98019 18.826 9.69511 18.8293C13.6439 18.8293 17.5916 18.8293 21.5381 18.8293C21.9477 18.84 22.3534 18.7463 22.7174 18.5569C28.3944 15.1485 34.0615 11.7277 39.7185 8.2946C39.7887 8.25087 39.8521 8.20041 39.9958 8.09614C39.4947 6.68007 38.9935 5.24383 38.4791 3.81094C38.2452 3.13823 37.988 2.50589 37.7642 1.84662C37.3933 0.729915 37.8878 0.0235662 39.0537 0.0202026C42.6684 0.0202026 46.2831 0.0202026 49.8978 0.0202026C51.1606 0.0202026 51.6584 0.729905 51.2341 1.94079C50.5459 3.88831 49.8343 5.82573 49.1328 7.76651C49.096 7.86742 49.0592 7.97169 49.0025 8.13987C49.2296 8.29123 49.4501 8.44932 49.6706 8.58723C55.1606 11.8678 60.655 15.1417 66.1539 18.4089C66.6297 18.6747 67.1633 18.818 67.7074 18.826C70.7374 18.863 73.7675 18.8428 76.7976 18.8461C80.9668 18.8461 83.9034 21.6077 83.9568 25.8121C84.0403 32.2197 84.0036 38.6307 83.9568 45.0417C83.9568 47.3693 82.2497 49.0208 80.0815 48.9973C77.9134 48.9737 76.2397 47.2314 76.233 44.897C76.233 40.3058 76.233 35.7145 76.233 31.1064C76.233 29.6802 75.9423 29.3943 74.5292 29.3943H65.2786C64.7541 31.3654 64.2296 33.323 63.7118 35.2806C62.2107 40.9718 60.7118 46.6629 59.2152 52.3541C58.9111 53.5146 58.6405 53.7265 57.488 53.7332L56.0548 53.7433ZM40.2196 51.3619H48.6884C48.7399 51.1684 48.779 50.9718 48.8054 50.7733C48.9891 47.9277 49.1595 45.0787 49.3466 42.2298C49.6027 38.3527 49.8677 34.4733 50.1417 30.5918C50.2018 29.724 50.7631 29.2026 51.4412 29.2833C52.1194 29.3641 52.537 29.9291 52.4935 30.7499C52.4401 31.7589 52.3599 32.768 52.2931 33.7771C51.9791 38.4368 51.6662 43.0975 51.3544 47.7595C51.2742 48.9502 51.214 50.1409 51.1439 51.4157C52.9112 51.4157 54.5748 51.3686 56.2319 51.4359C56.9535 51.4661 57.1706 51.1903 57.3343 50.5546C59.8042 41.0536 62.2842 31.5549 64.7742 22.0584C64.841 21.8061 64.8677 21.5437 64.9178 21.2578H24.0103C24.0704 21.5471 24.1105 21.7926 24.1739 22.0314C25.7552 28.0186 27.3365 34.0047 28.9178 39.9896C29.8566 43.5483 30.782 47.1137 31.7374 50.669C31.8109 50.9414 32.0715 51.3753 32.2385 51.3787C34.0893 51.4325 35.9434 51.4123 37.8343 51.4123C37.8343 51.0759 37.8343 50.8103 37.8343 50.5647C37.5871 46.7392 37.3365 42.9148 37.0826 39.0915C36.8956 36.2997 36.6951 33.5113 36.5214 30.7196C36.4713 29.8989 36.9423 29.3103 37.5938 29.2833C37.9176 29.2824 38.2289 29.4094 38.4607 29.6371C38.6924 29.8648 38.8262 30.175 38.8332 30.501C39.1739 35.58 39.508 40.6601 39.8354 45.7413C39.969 47.5846 40.0893 49.448 40.2196 51.3518V51.3619ZM64.851 83.6186C64.7641 83.3158 64.7007 83.0501 64.6138 82.7878C62.3867 75.953 60.1495 69.1137 57.9022 62.2699C57.6584 61.5266 57.6083 60.4973 57.0971 60.1307C56.586 59.7641 55.5671 59.9625 54.7753 59.9625C47.4089 59.9424 40.0425 59.9625 32.6728 59.9087C32.0214 59.9087 31.7875 60.1341 31.5938 60.7328C29.6895 66.5922 27.7519 72.4414 25.8243 78.294C25.253 80.0364 24.6851 81.7787 24.0938 83.5782H37.8777C37.7207 81.2237 37.5704 78.9398 37.4167 76.6526C37.2229 73.7498 37.0158 70.8504 36.8388 67.9443C36.792 67.137 37.2731 66.5989 37.9479 66.5417C38.6227 66.4845 39.1238 67.0328 39.1773 67.84C39.4045 71.3012 39.6216 74.7657 39.8454 78.2268C39.9624 80.0028 40.0927 81.7821 40.2196 83.6085H48.7085C48.7486 83.326 48.7953 83.0838 48.812 82.8382C49.1528 77.8714 49.4869 72.9033 49.8143 67.9342C49.8777 67.0395 50.3622 66.498 51.037 66.5585C51.7118 66.6191 52.1862 67.2312 52.1294 68.0755C51.8221 72.6836 51.5147 77.2894 51.2074 81.8931C51.1706 82.4615 51.2074 83.0367 51.2074 83.6219L64.851 83.6186ZM62.0882 18.789L48.1539 10.4137C47.9501 10.9585 47.743 11.4227 47.6094 11.8869C47.3789 12.7312 46.841 13.0372 46.0025 13.007C45.0303 12.97 44.0548 12.9565 43.086 13.007C42.1172 13.0574 41.5492 12.7211 41.312 11.7658C41.1668 11.2944 40.995 10.8318 40.7976 10.38L26.9167 18.789H62.0882ZM65.8867 27.0566H74.7964C75.1324 27.049 75.4682 27.076 75.7987 27.1374C77.5726 27.5309 78.6049 28.8797 78.6116 30.8642C78.6116 35.5059 78.6116 40.1511 78.6116 44.7962C78.6116 45.9331 79.2063 46.6495 80.0982 46.6629C80.9902 46.6764 81.5882 45.9667 81.5915 44.8264C81.5915 38.5029 81.6082 32.1794 81.5915 25.8559C81.5915 23.2255 79.9212 21.3352 77.4023 21.2444C74.2386 21.1334 71.0548 21.204 67.8978 21.2242C67.7781 21.2455 67.6653 21.2954 67.5688 21.3697C67.4722 21.444 67.3949 21.5407 67.3432 21.6514C66.8321 23.4105 66.3777 25.1899 65.8867 27.0466V27.0566ZM35.3688 57.4802H53.6127V53.7803H35.3688V57.4802ZM40.4468 2.39489C41.2853 4.74939 42.0804 7.00297 42.8822 9.24984C43.3699 10.6255 43.37 10.5953 44.8198 10.6323C45.4312 10.6491 45.6717 10.4305 45.8622 9.86875C46.6005 7.70933 47.3922 5.57011 48.1606 3.42414C48.2775 3.08779 48.3677 2.75143 48.4947 2.39489H40.4468ZM21.5949 21.2545H12.7285L23.753 29.4885C22.9947 26.5925 22.2998 23.9319 21.5949 21.2545Z" fill="#8C6846"/>
<path d="M23.7227 59.1822C23.6805 61.0345 23.1301 62.8389 22.1325 64.3957C20.3485 67.1068 17.3051 67.9577 14.3986 66.5215C11.8496 65.2635 10.2561 63.1176 9.15697 60.5646C9.07763 60.3192 8.93115 60.1013 8.73438 59.9359C8.5376 59.7705 8.29849 59.6643 8.04449 59.6295C6.33717 59.2668 4.80931 58.315 3.72489 56.9387C0.187031 52.7073 -0.952169 47.9041 0.841818 42.6266C2.38525 38.0925 7.00552 36.8211 10.804 39.7306C12.4811 41.0473 13.7814 42.7883 14.5723 44.7759C14.6538 45.0322 14.8067 45.2594 15.0128 45.4306C15.2189 45.6017 15.4696 45.7096 15.7349 45.7413C17.6926 46.1449 19.1926 47.3323 20.4387 48.8627C22.5968 51.5199 23.9665 55.6437 23.7227 59.1822ZM3.75829 41.9337C3.42422 42.6905 2.9966 43.3397 2.8162 44.0494C1.71041 48.4221 2.70262 52.3003 5.72935 55.6C6.3981 56.2682 7.19334 56.7943 8.06788 57.1472C8.70262 57.4297 9.48101 57.3793 10.2059 57.4836C9.39081 56.2525 8.41198 55.2636 8.03113 54.0763C7.56694 52.5591 7.36135 50.9737 7.42311 49.3874C7.51331 46.2761 6.29727 43.925 3.75829 41.9337ZM12.3407 55.7614C12.6463 55.126 12.9096 54.4709 13.1291 53.8005C13.9443 50.6589 13.4632 47.6552 11.9966 44.8029C11.2015 43.2657 10.1458 41.9472 8.59572 41.1029C7.81399 40.6791 6.9888 40.4302 6.00996 40.7666C6.27079 41.0525 6.54978 41.321 6.84515 41.5705C8.28629 42.9871 9.23724 44.8324 9.55784 46.8345C9.67048 47.9743 9.70955 49.1204 9.67478 50.2653C9.69483 52.4819 10.1592 54.4597 12.3407 55.7614ZM20.0812 63.094C23.1915 59.0746 20.4153 49.5994 15.4342 48.1698C15.8318 49.4076 16.1759 50.4974 16.54 51.5805C16.6636 51.9471 16.8507 52.2936 16.9977 52.6568C17.6258 54.2007 17.5757 55.8253 17.5489 57.4499C17.5122 59.7069 17.9198 61.7721 20.0812 63.1041V63.094ZM18.1703 64.5605C15.0233 62.2699 15.1937 58.8761 15.1636 55.5159C14.2717 57.312 13.1158 58.7516 11.275 59.4782C12.648 63.1142 16.0055 65.6133 18.1703 64.5706V64.5605Z" fill="#8C6846"/>
</svg>
