<svg width="78" height="78" viewBox="0 0 78 78" fill="none" xmlns="http://www.w3.org/2000/svg">
<path d="M51.5616 63.3709H76.2884C77.6582 63.3709 78.064 63.7949 77.9938 65.1526C77.7803 69.3995 74.0979 72.9996 69.8451 73.1155C69.2899 73.1155 68.7346 73.1155 68.1702 73.1155C67.5326 75.419 66.2055 77.036 63.8991 77.7163C63.3169 77.8904 62.7129 77.9808 62.1052 77.9848C46.6925 77.999 31.2799 77.999 15.8672 77.9848C14.5626 77.9983 13.2886 77.5898 12.2351 76.82C11.1817 76.0503 10.4053 74.9606 10.0218 73.7135C9.95778 73.5243 9.89066 73.3382 9.8571 73.2467C8.61847 73.0942 7.41645 73.0637 6.26934 72.786C2.72431 71.9165 0.0457003 68.4934 -0.00921427 64.9024C-0.0275191 63.8224 0.408742 63.377 1.48263 63.377H6.97408C6.33036 62.7149 5.73851 62.1749 5.22597 61.5647C3.40403 59.4429 2.41045 56.734 2.42838 53.9374C2.42838 52.6926 2.42838 51.4509 2.42838 50.2061C2.42838 49.1993 2.86769 48.7294 3.847 48.7478C6.07409 48.7874 8.32254 48.5128 10.5161 49.0986C12.1831 49.5192 13.7387 50.2972 15.0752 51.3787C16.4117 52.4602 17.497 53.8195 18.256 55.3622C18.3505 55.5422 18.439 55.7222 18.5305 55.9022C18.5305 55.9205 18.5702 55.9327 18.5946 55.951C19.04 55.6825 19.0553 55.3622 18.8356 54.9015C17.6243 52.3261 17.012 49.5098 17.0448 46.664C17.0448 40.5621 17.0448 34.4267 17.0448 28.3096C17.0448 25.8933 18.5702 24.3831 21.0108 24.3831H56.6687C59.2863 24.3831 60.5341 25.4173 61.01 28.0167C62.9342 28.0459 64.8352 28.4414 66.6113 29.1822C72.5756 31.7327 76.1206 37.6943 75.5044 43.9181C74.8302 50.7614 69.9275 56.0181 63.3286 57.0768C61.7147 57.3361 60.0398 57.2171 58.3954 57.3056C58.1132 57.3143 57.8431 57.4224 57.6327 57.6107C56.6961 58.6419 55.8755 59.786 54.8718 60.744C53.868 61.702 52.7301 62.4495 51.5616 63.3709ZM54.8107 57.269H40.5421C40.0082 57.269 39.4743 57.2934 38.9435 57.269C38.6356 57.2589 38.3434 57.1305 38.1275 56.9107C37.9117 56.6909 37.7887 56.3964 37.7842 56.0883C37.7776 55.7677 37.8974 55.4574 38.1178 55.2245C38.3382 54.9915 38.6413 54.8547 38.9618 54.8435C39.1662 54.8435 39.3676 54.8435 39.572 54.8435C44.981 54.8435 50.3871 54.8435 55.7962 54.8435C56.0046 54.8697 56.2157 54.8233 56.3941 54.7122C56.5724 54.6011 56.7071 54.432 56.7755 54.2333C57.9164 51.9027 58.5072 49.3413 58.5022 46.7464V28.4683C58.5022 27.1808 58.1087 26.7902 56.8243 26.7902H21.1786C19.8912 26.7902 19.5007 27.1808 19.5007 28.4683C19.5007 34.3565 19.5007 40.2459 19.5007 46.1362C19.4933 47.1557 19.5494 48.1746 19.6685 49.1871C19.8306 50.6445 20.2326 52.0651 20.8583 53.3913C21.743 52.9031 22.5393 52.4058 23.3844 52.0092C25.706 50.92 28.1924 51.1702 30.6453 51.2068C30.782 51.2075 30.9172 51.2357 31.0427 51.2898C31.1683 51.3438 31.2817 51.4226 31.3762 51.5213C31.4707 51.6201 31.5444 51.7369 31.5928 51.8647C31.6413 51.9926 31.6635 52.1289 31.6582 52.2655C31.6277 54.0594 31.6063 55.8656 31.405 57.6473C31.2219 59.2521 30.3768 60.6372 29.2694 62.1322C30.865 62.5135 32.3202 63.0475 33.7998 63.1725C36.4754 63.3739 39.1723 63.3708 41.8601 63.3403C43.2034 63.3281 44.5418 63.1758 45.8536 62.8857C49.4108 62.0864 52.3274 60.2101 54.8107 57.2781V57.269ZM12.4594 73.1216C13.0696 74.7386 14.3357 75.5624 16.1387 75.5624H61.8398C62.0168 75.5624 62.1967 75.5624 62.3737 75.5624C63.8289 75.4769 65.1591 74.464 65.4825 73.1216H39.6116C39.3589 73.1445 39.1047 73.1445 38.852 73.1216C38.5673 73.0739 38.3087 72.9268 38.1222 72.7064C37.9357 72.4861 37.8333 72.2067 37.8333 71.918C37.8333 71.6293 37.9357 71.35 38.1222 71.1296C38.3087 70.9092 38.5673 70.7621 38.852 70.7144C39.0793 70.693 39.3081 70.693 39.5354 70.7144H55.6802C60.2992 70.7144 64.9181 70.7144 69.54 70.7144C72.423 70.7144 74.9949 68.5574 75.3793 65.9031H2.62058C2.89626 67.2638 3.63473 68.487 4.7104 69.3647C5.78608 70.2425 7.13254 70.7205 8.52084 70.7175C12.4869 70.7358 16.4529 70.7175 20.4007 70.7175C21.3739 70.7175 21.9261 71.1477 21.9261 71.9135C21.9261 72.6792 21.3769 73.1521 20.361 73.1552H12.4594V73.1216ZM59.2436 54.8161C64.735 55.1211 69.0489 53.199 71.6451 48.3542C74.0552 43.8541 73.6312 39.3661 70.5865 35.2718C68.2252 32.0958 64.9425 30.5734 60.9703 30.4575V32.7975C61.0252 32.8433 61.0405 32.8677 61.0619 32.8707C61.1615 32.8829 61.2632 32.8921 61.3669 32.8982C65.455 33.2338 68.4265 35.2413 69.958 39.0428C71.4895 42.8442 70.7421 46.3345 67.9963 49.3366C66.0865 51.4234 63.6367 52.3875 60.7995 52.4119C60.5432 52.4119 60.1436 52.5218 60.0581 52.6987C59.747 53.3577 59.5334 54.0533 59.2527 54.8222L59.2436 54.8161ZM60.8727 35.3694V49.9102C64.5947 50.1665 68.1184 46.8592 68.2374 42.9144C68.3685 38.8231 65.0157 35.3023 60.8818 35.3756L60.8727 35.3694ZM17.0051 61.5921C17.4902 56.0395 13.1916 50.0719 4.93004 51.28C4.13378 58.468 9.02118 64.2282 15.196 63.2824C15.0069 63.081 14.8482 62.898 14.6774 62.7241C12.8286 60.8752 10.9798 59.0263 9.131 57.1775C8.41711 56.4574 8.33779 55.7374 8.89914 55.1883C9.46049 54.6391 10.1561 54.7398 10.8883 55.4628C11.2696 55.8381 11.6449 56.2164 12.0201 56.5947L17.0051 61.5921ZM21.3129 63.2824C25.9989 63.7614 29.968 58.8311 29.1718 53.6933C23.961 52.9672 19.0614 56.9212 19.5892 61.5037C19.8149 61.2932 20.0193 61.1132 20.1993 60.924C21.2763 59.8501 22.3349 58.7639 23.4332 57.7022C24.0006 57.15 24.6962 57.1378 25.1996 57.6107C25.703 58.0836 25.7121 58.8311 25.16 59.4413C24.9739 59.6487 24.7694 59.8409 24.5711 60.0362L21.3129 63.2824Z" fill="#8C6846"/>
<path d="M36.6856 13.4058C33.5097 13.4058 30.3369 13.4058 27.1641 13.4058C26.7613 13.4058 26.2488 13.5156 25.9986 13.7811C25.8712 13.9547 25.7802 14.1523 25.7309 14.362C25.6816 14.5717 25.6752 14.7892 25.7119 15.0014C25.8339 15.6116 26.3861 15.8252 27.0054 15.8252C29.745 15.8252 32.4908 15.8252 35.2426 15.8252C36.4343 15.797 37.5952 16.2059 38.5062 16.9747C39.4172 17.7436 40.0154 18.8193 40.188 19.9988C40.2407 20.2733 40.251 20.5542 40.2185 20.8317C40.1772 21.1178 40.0359 21.3799 39.8195 21.5715C39.6031 21.763 39.3258 21.8716 39.0369 21.8778C38.748 21.884 38.4662 21.7875 38.2418 21.6055C38.0174 21.4234 37.8649 21.1676 37.8114 20.8836C37.3873 18.7632 36.7955 18.2628 34.6416 18.2628H27.0146C24.8119 18.2628 23.1614 16.6947 23.1553 14.6017C23.1492 12.5088 24.7966 10.9406 26.9871 10.9406H45.5696C45.774 10.9406 45.9784 10.9406 46.1797 10.9406C47.0035 10.9101 47.5404 10.4098 47.5251 9.69891C47.5099 8.98805 46.9912 8.53345 46.2072 8.5121C45.6245 8.49379 45.0387 8.5121 44.456 8.5121C41.8415 8.5121 39.227 8.5121 36.6124 8.5121C34.7922 8.5199 33.034 7.8517 31.6784 6.63698C30.3228 5.42226 29.4664 3.74753 29.2752 1.93735C29.2533 1.73474 29.2452 1.53088 29.2508 1.32717C29.2508 0.543081 29.7145 0.0183293 30.4071 -0.0182819C31.0996 -0.054893 31.6274 0.451561 31.6884 1.27836C31.8684 3.80758 33.4152 5.57712 35.8467 6.01035C36.198 6.06284 36.5533 6.08325 36.9083 6.07136H46.1218C48.3214 6.07136 49.9688 7.64258 49.9719 9.73247C49.9749 11.8224 48.3244 13.3936 46.1279 13.3936L36.6856 13.4058Z" fill="#8C6846"/>
</svg>
