<svg width="70" height="70" viewBox="0 0 70 70" fill="none" xmlns="http://www.w3.org/2000/svg">
<path d="M11.3372 30.6856C9.92064 28.8159 8.72227 27.0364 8.09547 24.9613C7.84088 24.1643 7.71051 23.3335 7.70889 22.4975C7.74479 20.3074 9.28556 18.9249 11.4807 19.1412C12.5664 19.286 13.6324 19.5504 14.6589 19.9296C15.109 20.0802 15.3382 20.0419 15.653 19.7216C17.0336 18.3199 18.4142 16.9293 19.8473 15.5687C20.22 15.2128 20.2366 14.9472 20.0875 14.4736C19.7451 13.3786 19.3751 12.2452 19.3254 11.1146C19.2288 8.85338 20.9821 7.39972 23.2491 7.61872C25.2703 7.81583 27.0347 8.66449 28.7246 9.6993C29.4453 10.14 30.1301 10.6383 30.8922 11.1502C31.0551 10.9996 31.2401 10.8381 31.4113 10.6684L41.4567 0.695381C42.39 -0.229922 42.876 -0.229922 43.8203 0.695381L51.4247 8.23468C52.3277 9.12987 52.3277 9.62538 51.4247 10.5206C41.8046 20.0565 32.1835 29.5906 22.5616 39.1228C22.3719 39.2861 22.1718 39.437 21.9624 39.5745L22.0645 39.7306H46.4711C46.38 39.58 46.2944 39.4349 46.1949 39.2926C45.7255 38.5397 45.2037 37.8143 44.8005 37.0258C43.7623 35 44.2704 32.8018 46.0238 31.474C46.8829 30.8116 47.9476 30.4658 49.0356 30.4958C50.1236 30.5258 51.1672 30.9296 51.988 31.6383C52.1233 31.756 52.2641 31.8792 52.4188 32.0243C53.446 31.036 54.6277 30.4639 56.0636 30.4912C59.3163 30.5542 61.6993 34.0693 60.1336 36.878C59.6007 37.8307 59.0154 38.7533 58.4272 39.7333C58.5825 39.7593 58.7393 39.7758 58.8966 39.7826C60.4567 39.7826 62.0196 39.7826 63.5907 39.7826C65.01 39.7826 65.3496 40.1111 65.3496 41.4991V60.1009C65.3496 62.8586 65.3496 65.6153 65.3496 68.3712C65.3496 69.6332 64.9741 70.0137 63.715 70.0137H10.6993C9.41532 70.0137 9.07845 69.677 9.07845 68.3958C9.07845 63.0667 9.07845 57.7366 9.07845 52.4056C9.09156 52.1767 9.05161 51.9479 8.96162 51.7367C8.87164 51.5255 8.734 51.3376 8.55934 51.1874C5.83124 48.5428 3.14457 45.86 0.455127 43.1772C-0.199285 42.5257 -0.155106 41.9398 0.557292 41.2335C3.93704 37.8809 7.31863 34.5319 10.7021 31.1866C10.9032 31.0069 11.1153 30.8396 11.3372 30.6856ZM62.9722 42.1835H43.0913V67.643H62.9722V42.1835ZM31.3009 42.1287C27.4352 42.1287 23.6467 42.1287 19.8583 42.1451C19.5964 42.1868 19.3572 42.3174 19.1818 42.5147C16.7354 44.9201 14.3018 47.3365 11.8811 49.7638C11.6266 50.0343 11.477 50.3854 11.4586 50.7548C11.4338 56.1479 11.4421 61.5436 11.4421 66.9367V67.6348H31.3009V42.1287ZM24.1796 34.0473L17.8288 27.7153L3.06728 42.3368L9.44019 48.666L24.1796 34.0473ZM27.9404 17.5452C30.0914 19.6833 32.2756 21.8514 34.4349 24.0004L49.1246 9.4447L42.6192 3.00042L27.9404 17.5452ZM33.7031 67.643H40.6725V42.1835H33.6948L33.7031 67.643ZM26.0048 32.2077L32.4854 25.7826L26.0738 19.3849L19.5656 25.8373L26.0048 32.2077ZM52.4491 39.81C53.2278 39.81 54.0092 39.8373 54.7879 39.81C55.0718 39.7955 55.342 39.6843 55.5528 39.4951C56.6704 38.3485 57.5528 36.9976 58.1511 35.5174C58.2452 35.2666 58.2727 34.9961 58.2312 34.7317C58.1285 34.179 57.8248 33.683 57.3776 33.3376C56.9305 32.9922 56.371 32.8215 55.8054 32.8579C55.2397 32.8944 54.7072 33.1355 54.309 33.5354C53.9107 33.9353 53.6743 34.4662 53.6447 35.0274C53.6423 35.3216 53.6015 35.6142 53.5233 35.898C53.4524 36.143 53.2938 36.3541 53.0773 36.4916C52.8608 36.6292 52.6012 36.6838 52.347 36.6453C52.079 36.6352 51.8243 36.5273 51.6317 36.3424C51.4391 36.1575 51.3221 35.9086 51.3032 35.6434C51.2729 35.3943 51.2784 35.1424 51.2425 34.896C51.1889 34.4171 50.9836 33.9674 50.6562 33.6113C50.3288 33.2552 49.8961 33.0111 49.4201 32.914C49.0045 32.8108 48.5677 32.8296 48.1628 32.9681C47.7578 33.1066 47.4022 33.3589 47.1393 33.6942C46.5705 34.3595 46.4186 35.1068 46.8963 35.8843C47.4614 36.8151 48.033 37.7431 48.611 38.6684C49.1633 39.5554 49.9088 40.0016 51.005 39.8264C51.482 39.7775 51.9621 39.7665 52.4409 39.7935L52.4491 39.81ZM24.4696 17.3207L29.0642 12.738C27.5511 11.6101 25.8971 10.5479 23.9505 10.0689C22.0038 9.58979 21.2859 10.2879 21.7691 12.2288C22.2523 14.1698 23.3126 15.7795 24.4613 17.3043L24.4696 17.3207ZM12.8199 28.7584L17.4505 24.1729C16.7657 23.7349 16.0423 23.149 15.2167 22.774C14.0688 22.2227 12.8657 21.7923 11.6271 21.4901C10.3707 21.2163 9.89026 21.7638 10.0559 23.0669C10.3348 25.3117 11.6133 27.0939 12.8199 28.7584ZM22.8294 19.0427L21.6007 17.3426L17.5002 21.4025L19.2232 22.6125L22.8294 19.0427Z" fill="#8C6846"/>
<path d="M61.8042 15.7657C63.9442 13.729 66.3879 13.9699 68.0087 15.0677C69.4998 16.0778 70.6733 18.3938 69.5577 20.5428C68.2015 23.2669 66.2018 25.626 63.7288 27.4196C62.2571 28.4681 61.3735 28.4544 59.8962 27.4196C57.4412 25.6755 55.4619 23.3538 54.1363 20.6633C53.6553 19.7582 53.5187 18.7119 53.7514 17.7152C53.9841 16.7186 54.5705 15.8381 55.4037 15.2346C56.2515 14.578 57.3011 14.23 58.3768 14.249C59.4525 14.2679 60.4889 14.6526 61.3127 15.3387C61.4673 15.4591 61.6165 15.596 61.8042 15.7657ZM55.9808 18.9578C56.0454 19.2239 56.138 19.4827 56.2569 19.7298C57.463 21.9114 59.0788 23.8442 61.0173 25.4239C61.5695 25.8948 62.0914 25.9085 62.674 25.4239C64.6223 23.8208 66.2397 21.8594 67.4371 19.6476C67.6163 19.2844 67.6816 18.8763 67.6249 18.476C67.5398 17.9062 67.2382 17.3903 66.7817 17.034C66.3253 16.6777 65.7487 16.508 65.1701 16.5596C64.6064 16.6044 64.0785 16.8516 63.6855 17.2548C63.2925 17.658 63.0615 18.1896 63.0357 18.7497C63.0329 18.9994 63.0033 19.2481 62.9474 19.4916C62.8882 19.7508 62.7359 19.9798 62.519 20.136C62.3021 20.2921 62.0353 20.3647 61.7683 20.3402C61.4897 20.326 61.226 20.2108 61.0275 20.0165C60.8289 19.8222 60.7093 19.5623 60.6914 19.2863C60.6707 18.9457 60.6301 18.6066 60.57 18.2706C60.4294 17.738 60.1021 17.2724 59.6467 16.9573C59.1913 16.6423 58.6376 16.4984 58.0848 16.5514C57.4931 16.6166 56.9479 16.9004 56.5579 17.3464C56.1679 17.7925 55.9619 18.3678 55.9808 18.9578Z" fill="#8C6846"/>
<path d="M34.8435 35.1889C32.93 35.0302 32.5407 34.8248 32.5296 34.0008C32.5038 33.746 32.5742 33.4908 32.7273 33.2845C32.8803 33.0782 33.105 32.9354 33.358 32.8839C33.8486 32.8094 34.3445 32.7756 34.8408 32.7826C34.9706 31.8682 34.526 30.4885 36.0861 30.5378C37.4971 30.5816 37.1492 31.86 37.2624 32.7963C38.2012 32.8784 39.4134 32.5417 39.5432 33.9954C39.6122 34.7646 39.1014 35.0083 37.2707 35.1999C37.1243 36.0951 37.5164 37.4611 35.9922 37.4283C34.5481 37.4009 34.943 36.1115 34.8435 35.1889Z" fill="#8C6846"/>
<path d="M63.0551 8.45367C62.917 9.38992 63.2897 10.6711 61.8511 10.704C60.3269 10.7395 60.7466 9.40086 60.6086 8.47282C59.6863 8.3113 58.2892 8.76848 58.3527 7.19437C58.4079 5.80641 59.667 6.18146 60.6611 6.0309C60.6611 5.66132 60.6417 5.28627 60.6611 4.91396C60.6697 4.62937 60.7847 4.35813 60.9838 4.15297C61.183 3.94781 61.4519 3.82341 61.7384 3.80395C62.0249 3.78449 62.3085 3.87137 62.534 4.04769C62.7594 4.224 62.9107 4.47716 62.9584 4.75793C63.0079 5.18329 63.0347 5.61095 63.0385 6.03912C63.9552 6.18147 65.3386 5.8201 65.2972 7.31482C65.2585 8.71099 63.9552 8.36059 63.0551 8.45367Z" fill="#8C6846"/>
<path d="M45.378 23.5296C45.0675 23.527 44.7707 23.4023 44.5529 23.1828C44.3352 22.9634 44.2143 22.6671 44.2168 22.3593C44.2194 22.0514 44.3452 21.7572 44.5666 21.5413C44.7879 21.3254 45.0868 21.2056 45.3973 21.2081C45.551 21.2094 45.703 21.2406 45.8446 21.3001C45.9861 21.3596 46.1145 21.4462 46.2223 21.5549C46.3301 21.6635 46.4153 21.7922 46.4729 21.9335C46.5306 22.0748 46.5597 22.226 46.5584 22.3784C46.5571 22.5309 46.5256 22.6815 46.4656 22.8219C46.4056 22.9622 46.3182 23.0895 46.2086 23.1964C46.099 23.3033 45.9693 23.3877 45.8267 23.4449C45.6842 23.5021 45.5317 23.5308 45.378 23.5296Z" fill="#8C6846"/>
<path d="M67.6858 34.0008C67.6723 34.3105 67.5381 34.6028 67.3114 34.8162C67.0848 35.0297 66.7835 35.1476 66.4709 35.1451C66.1704 35.1273 65.8884 34.9954 65.6835 34.7768C65.4785 34.5583 65.3663 34.2698 65.3702 33.9714C65.3741 33.673 65.4938 33.3875 65.7044 33.1743C65.9151 32.9611 66.2005 32.8365 66.5013 32.8264C66.8139 32.8314 67.1123 32.9567 67.3334 33.1759C67.5545 33.3951 67.6809 33.6909 67.6858 34.0008Z" fill="#8C6846"/>
</svg>
