<svg width="85" height="69" viewBox="0 0 85 69" fill="none" xmlns="http://www.w3.org/2000/svg">
<path d="M68.5673 58.0409C68.3978 59.2867 68.2781 60.4925 68.0654 61.6951C67.4006 65.4322 63.9704 68.5615 60.1913 68.8771C59.1941 68.9601 58.197 69.0133 57.1998 69.0133C46.0517 69.0133 34.9047 69.0133 23.7589 69.0133C19.983 69.0133 16.9616 67.535 15.1601 64.1433C14.5484 62.883 14.154 61.5286 13.9935 60.1371C13.6844 58.0376 13.6179 55.9049 13.4218 53.7888C13.4125 53.5011 13.2936 53.2278 13.0894 53.0248C10.1811 51.0316 8.46596 48.1748 7.47214 44.9492C6.52818 41.8797 5.98309 38.6873 5.29174 35.5414C4.26135 30.8641 2.89194 26.3131 0.352548 22.1939C-0.219149 21.2704 -0.165965 20.8153 0.605161 20.0844C1.49151 19.2451 2.37786 18.4168 3.26422 17.5996C4.13506 16.8024 4.57712 16.7891 5.50779 17.5099C8.74153 20.0333 11.4618 23.1523 13.5215 26.6984C13.6611 26.9376 13.8073 27.1701 13.9602 27.3994C13.9835 27.4392 14.05 27.4525 14.0367 27.4459C15.0006 26.23 15.8748 24.9544 16.9218 23.8383C18.9587 21.6714 21.5621 20.1179 24.4369 19.3536C25.1017 19.1709 25.2646 18.8952 25.2247 18.274C25.1748 17.5033 25.2247 16.7293 25.2247 15.9752C24.8677 15.8174 24.5325 15.6142 24.2275 15.3706C23.6459 14.7693 23.8951 13.8824 24.6796 13.4372C24.9663 13.2804 25.1808 13.0184 25.2779 12.7064C25.793 9.76652 27.784 8.02914 30.7655 8.00921C32.8063 8.00921 34.8505 8.00921 36.9677 8.00921C36.8248 7.10564 36.6719 6.27516 36.5622 5.43803C36.3129 3.51795 36.9378 1.94002 38.5565 0.860386C39.2889 0.323751 40.1719 0.0313917 41.08 0.0248321C41.9882 0.0182725 42.8753 0.297851 43.6154 0.823849C45.254 1.88355 45.9055 3.45149 45.6728 5.37821C45.5698 6.22199 45.4102 7.06245 45.2607 8.00921C46.8096 8.00921 48.3219 7.97599 49.8309 8.00921C50.9843 8.04242 52.1808 8.00921 53.2744 8.30486C55.385 8.88288 56.5716 10.3944 56.9306 12.5603C56.9738 12.8293 57.0835 13.2246 57.263 13.311C57.8912 13.5668 58.3299 13.9389 58.3 14.6398C58.2701 15.3407 57.7283 15.7161 57.0735 15.8656C57.0485 15.9546 57.0318 16.0458 57.0237 16.138C57.0237 17.0515 56.7112 18.1577 57.1201 18.8155C57.5289 19.4732 58.649 19.5695 59.4467 19.9017C61.9752 20.9063 64.2212 22.5104 65.9913 24.5757C66.1 24.743 66.2683 24.8629 66.462 24.9109C66.6557 24.959 66.8606 24.9319 67.035 24.8348C74.7529 22.0311 82.8364 26.4526 84.608 34.4685C84.79 35.2756 84.888 36.0994 84.9005 36.9267C84.9382 39.7437 84.9382 42.5618 84.9005 45.381C84.834 48.83 83.424 52.1171 80.9704 54.5433C78.5167 56.9695 75.2129 58.3435 71.7615 58.3731C70.6918 58.3161 69.6257 58.2052 68.5673 58.0409ZM14.6416 34.1795C14.615 34.5116 14.5818 34.6777 14.5884 34.8438C14.7148 37.2689 14.7979 39.6972 14.9873 42.1156C15.446 47.9755 15.9845 53.832 16.4332 59.6919C16.7456 63.7248 19.4645 66.4919 23.4464 66.5052C35.2526 66.5406 47.0599 66.5406 58.8683 66.5052C62.5678 66.5052 65.27 64.1466 65.732 60.5257C66.111 57.536 66.2905 54.5463 66.5464 51.5399C66.9253 47.0852 67.364 42.6305 67.6333 38.1691C67.7463 36.2889 67.4804 34.3854 67.394 32.4919C67.3707 31.9371 67.0616 31.7544 66.573 31.8973C65.5758 32.1863 64.5787 32.4786 63.5815 32.8174C62.2088 33.2958 60.8693 33.8838 59.4766 34.2857C58.7321 34.5017 57.9045 34.4286 57.0536 34.4884V35.5448C57.0536 42.5917 57.0536 49.6364 57.0536 56.6789C57.0536 60.1039 54.8731 62.3628 51.5127 62.3761C44.5992 62.4093 37.6857 62.396 30.7721 62.3761C29.4889 62.4121 28.2345 61.9918 27.2323 61.1901C25.7631 59.9909 25.238 58.403 25.238 56.5759C25.238 48.7029 25.238 40.8288 25.238 32.9536V31.7611C21.7746 33.2294 18.5637 35.1428 14.645 34.1695L14.6416 34.1795ZM27.7541 31.8541V32.7942C27.7541 40.6716 27.7541 48.5479 27.7541 56.4231C27.7541 58.8249 28.7779 59.8448 31.1943 59.8448H51.0275C53.5635 59.8448 54.554 58.8482 54.554 56.3467C54.554 49.5733 54.5275 42.8032 54.5807 36.0331C54.5807 34.7043 54.5374 33.6878 52.9187 33.4287C52.347 33.3357 51.8352 32.8972 51.2801 32.6547C50.7326 32.3933 50.1617 32.1842 49.575 32.0301C47.3247 31.5418 45.141 31.6979 43.0703 32.8174C41.5828 33.671 39.9288 34.1945 38.2208 34.3522C35.7547 34.5527 33.2854 34.0063 31.1344 32.7842C30.1168 32.1679 28.9472 31.8481 27.7574 31.8607L27.7541 31.8541ZM25.2513 29.0836V27.2898C25.2513 26.6254 25.2247 25.961 25.2513 25.2966C25.3045 24.4794 25.8629 23.9246 26.5376 23.9445C27.2123 23.9645 27.7142 24.496 27.7308 25.3597C27.7541 26.4626 27.7508 27.5688 27.7308 28.6816C27.7308 29.1168 27.8704 29.2663 28.3125 29.3859C29.6886 29.748 31.1344 30.0237 32.3842 30.6582C35.5917 32.2959 38.6994 32.3191 41.877 30.6582C45.4734 28.7746 49.1196 28.8145 52.7559 30.6117C53.311 30.8841 53.876 31.1332 54.5408 31.4389C54.5408 30.9007 54.5408 30.5187 54.5408 30.1366C54.5408 28.4757 54.5408 26.8147 54.564 25.1537C54.5701 24.8549 54.6869 24.569 54.8919 24.3514C55.0968 24.1338 55.3754 24.0001 55.6734 23.9761C55.9715 23.9521 56.2678 24.0396 56.505 24.2215C56.7422 24.4035 56.9033 24.6671 56.9572 24.9611C57.0116 25.2581 57.0394 25.5593 57.0402 25.8613C57.0402 27.5721 57.0402 29.2862 57.0402 31.0003C57.0402 31.2893 57.0668 31.5783 57.0835 31.9504C57.9011 31.8773 58.6623 31.9504 59.3171 31.7279C61.6072 30.9339 63.8608 30.0337 66.1276 29.1766C63.7378 24.2502 58.6989 21.1441 52.8323 21.1209C45.0346 21.0877 37.237 21.0877 29.4393 21.1209C24.6264 21.1475 20.6445 23.0111 17.6364 26.808C16.4488 28.2711 15.5855 29.9695 15.1037 31.791C16.9949 31.9836 18.7598 31.9305 20.455 31.1532C21.9939 30.4689 23.5428 29.8277 25.2546 29.0902L25.2513 29.0836ZM68.7135 55.4797C69.8203 55.606 70.8806 55.8551 71.9343 55.8119C74.7569 55.7708 77.4491 54.6171 79.4249 52.602C81.4007 50.5869 82.5002 47.8735 82.4841 45.0522C82.504 42.4278 82.5173 39.8035 82.4841 37.1825C82.4309 33.5283 80.9385 30.5386 77.9537 28.4225C74.9124 26.2599 71.5786 25.9012 67.9823 27.0937C68.1219 27.3861 68.2183 27.6053 68.3147 27.8213C69.4747 30.0835 70.2823 32.4719 70.2125 35.0232C70.1261 38.189 69.8503 41.3349 69.6143 44.514C69.3517 48.1249 69.0326 51.696 68.7168 55.4864L68.7135 55.4797ZM27.794 18.6261H54.4909V15.7859C54.0355 15.7859 53.65 15.7859 53.2644 15.7859C52.4434 15.756 51.9581 15.3308 51.9349 14.6265C51.9116 13.9223 52.3836 13.3675 53.2179 13.2977C53.6433 13.2678 54.0787 13.2977 54.5142 13.2977C54.3712 11.4474 53.3143 10.4807 51.4928 10.4774C45.3548 10.4774 39.2135 10.4774 33.0689 10.4774C32.2113 10.4774 31.3538 10.4475 30.4996 10.4774C28.8942 10.5538 27.794 11.7364 27.8937 13.2811H47.132C47.4665 13.2656 47.8017 13.2935 48.1291 13.3642C48.4088 13.438 48.6531 13.6087 48.8185 13.8459C48.9838 14.0831 49.0595 14.3713 49.0319 14.659C49.0044 14.9468 48.8754 15.2154 48.668 15.417C48.4606 15.6185 48.1883 15.7398 47.8997 15.7593C47.6239 15.7825 47.348 15.7593 47.0688 15.7593H27.8173L27.794 18.6261ZM13.1027 49.5201C12.9133 47.218 12.7072 44.916 12.5344 42.6139C12.3549 40.2221 12.1322 37.8269 12.0657 35.4318C12.0059 33.3788 12.0922 33.3689 10.2143 32.5317C9.21715 32.0966 8.22001 31.7345 7.06332 31.9039C7.31593 33.0234 7.56188 34.0964 7.80452 35.1661C8.46929 38.1558 9.03105 41.1455 9.83541 44.0954C10.389 46.1761 11.5233 48.0564 13.106 49.5168L13.1027 49.5201ZM4.52724 19.8652C4.04529 20.317 3.57331 20.7023 3.19772 21.1541C3.13742 21.2585 3.10163 21.3753 3.09299 21.4955C3.08436 21.6158 3.10313 21.7365 3.14789 21.8484C4.1118 24.1273 5.11889 26.3895 6.0695 28.6717C6.11368 28.8533 6.2191 29.0142 6.368 29.1273C6.51691 29.2404 6.70024 29.2989 6.88719 29.2929C7.54942 29.2886 8.20983 29.3622 8.85486 29.5121C10.1644 29.8875 11.4441 30.3658 12.9465 30.8741C11.0006 26.6204 8.12469 22.8573 4.53057 19.8619L4.52724 19.8652ZM42.7512 7.96269C42.9306 6.91296 43.1268 5.94295 43.2597 4.97295C43.3265 4.57361 43.2728 4.16342 43.1052 3.79478C42.9377 3.42614 42.664 3.1158 42.3191 2.90339C41.9902 2.686 41.607 2.56473 41.2129 2.55325C40.8187 2.54177 40.4292 2.64052 40.0882 2.83838C39.7471 3.03625 39.4682 3.32538 39.2827 3.67317C39.0973 4.02096 39.0127 4.41359 39.0385 4.80685C39.1415 5.86323 39.3708 6.90963 39.5536 7.97597L42.7512 7.96269Z" fill="#8C6846"/>
<path d="M41.0291 49.2809C42.3985 47.9787 43.8942 47.0752 45.7256 46.8825C48.7935 46.5503 49.2355 47.2446 48.9896 49.9188C48.6273 53.8154 45.227 56.9181 41.2983 57.0178C40.8302 57.0721 40.3559 57.0128 39.9156 56.845C39.5267 56.6457 39.0613 56.2072 39.0081 55.8218C38.9303 54.9071 38.9158 53.988 38.9649 53.0713C37.559 52.5929 36.0865 52.3239 34.86 51.6229C32.1278 50.0649 30.7518 47.6167 30.8714 44.4176C30.9246 43.1221 31.3368 42.7235 32.6298 42.6105C36.286 42.2783 39.9422 44.9359 40.813 48.5069C40.8795 48.7395 40.946 48.972 41.0291 49.2809ZM38.4963 50.2045C38.4963 47.5104 35.6611 44.7664 33.3975 45.2215C33.6668 47.9788 35.8505 50.1347 38.4963 50.2045ZM46.4369 49.344C43.5319 49.6762 41.2783 52.0016 41.4512 54.43C44.1667 54.5628 46.7494 51.4335 46.4369 49.344Z" fill="#8C6846"/>
<path d="M47.4414 35.4816C49.0634 35.4816 49.4889 35.9168 49.4922 37.5479C49.4821 38.4219 49.2874 39.284 48.9209 40.0776C48.5544 40.8713 48.0244 41.5786 47.3655 42.1534C46.7066 42.7282 45.9337 43.1575 45.0974 43.4132C44.261 43.6688 43.3801 43.7451 42.5122 43.637C41.7776 43.534 41.422 43.0955 41.3323 42.368C41.2359 41.5059 41.3217 40.6332 41.5841 39.8064C41.8465 38.9795 42.2795 38.2168 42.8554 37.5677C43.4312 36.9187 44.1369 36.3976 44.9269 36.0383C45.7168 35.6789 46.5735 35.4893 47.4414 35.4816ZM43.8849 41.0791C44.6574 40.9984 45.378 40.6523 45.9236 40.0998C46.4691 39.5472 46.8059 38.8226 46.8764 38.0495C45.2078 38.3684 44.0112 39.5842 43.8849 41.0791Z" fill="#8C6846"/>
<path d="M50.2862 46.4441C50.0103 46.2182 49.535 46.0122 49.4154 45.6767C49.343 45.4659 49.3157 45.2423 49.3352 45.0203C49.3547 44.7983 49.4205 44.5828 49.5284 44.3878C49.9706 43.7935 50.4969 43.2664 51.0906 42.8231C51.3172 42.6335 51.6096 42.5411 51.9041 42.566C52.1985 42.5909 52.4712 42.7311 52.6627 42.956C52.8785 43.1371 53.0144 43.3956 53.0411 43.6759C53.0678 43.9561 52.9833 44.2357 52.8056 44.4542C52.2956 45.0583 51.74 45.6225 51.1437 46.1418C50.9775 46.2946 50.6917 46.3112 50.2862 46.4441Z" fill="#8C6846"/>
<path d="M39.7533 40.0261C39.5971 40.232 39.4209 40.7104 39.0885 40.8432C38.881 40.9217 38.6592 40.9558 38.4376 40.9432C38.216 40.9306 37.9995 40.8717 37.8022 40.7702C37.1834 40.3616 36.6542 39.8315 36.2467 39.2122C36.1353 38.9953 36.0771 38.755 36.0771 38.5112C36.0771 38.2674 36.1353 38.0272 36.2467 37.8103C36.476 37.4947 37.3136 37.2157 37.5562 37.3884C38.318 37.9922 39.0223 38.665 39.6602 39.3982C39.7234 39.4813 39.6968 39.664 39.7533 40.0261Z" fill="#8C6846"/>
<path d="M33.6903 57.0676C33.4144 57.0211 32.9624 57.0676 32.7397 56.875C32.4073 56.5428 31.9852 56.0544 32.0218 55.6658C32.0583 55.2771 32.5402 54.7888 32.9424 54.6193C33.3446 54.4499 33.9695 54.5363 34.488 54.5529C34.6398 54.5407 34.7924 54.5593 34.9368 54.6077C35.0811 54.6561 35.2142 54.7333 35.3279 54.8345C35.4416 54.9357 35.5336 55.0589 35.5983 55.1966C35.663 55.3344 35.6992 55.4838 35.7045 55.6359C35.7777 56.39 35.3954 56.8318 34.6708 56.9646C34.3783 57.0444 34.0725 57.0444 33.6903 57.0676Z" fill="#8C6846"/>
<path d="M51.7256 55.7421C51.7224 56.0601 51.6002 56.3654 51.3831 56.5978C51.1659 56.8302 50.8695 56.9729 50.5523 56.9978C50.3878 57.0082 50.223 56.9849 50.0679 56.9292C49.9128 56.8735 49.7707 56.7866 49.6505 56.674C49.5303 56.5613 49.4344 56.4252 49.3689 56.274C49.3033 56.1229 49.2694 55.96 49.2693 55.7953C49.2608 55.6382 49.284 55.4811 49.3375 55.3333C49.3909 55.1854 49.4736 55.0498 49.5806 54.9345C49.6876 54.8192 49.8167 54.7266 49.9602 54.6622C50.1037 54.5978 50.2587 54.5628 50.416 54.5595C50.5804 54.5483 50.7453 54.5702 50.9009 54.6241C51.0566 54.6779 51.1998 54.7626 51.3221 54.8729C51.4443 54.9833 51.543 55.1171 51.6123 55.2665C51.6817 55.4158 51.7202 55.5776 51.7256 55.7421Z" fill="#8C6846"/>
<path d="M31.8655 41.026C31.5438 41.0374 31.2306 40.9206 30.995 40.7013C30.7594 40.4821 30.6206 40.1782 30.6092 39.8566C30.5977 39.535 30.7145 39.2221 30.9339 38.9866C31.1533 38.7511 31.4574 38.6124 31.7791 38.6009C31.9452 38.5867 32.1125 38.6079 32.2698 38.6631C32.4271 38.7184 32.5708 38.8064 32.6915 38.9214C32.8121 39.0363 32.907 39.1756 32.9698 39.3299C33.0325 39.4843 33.0618 39.6503 33.0555 39.8168C33.0629 39.9758 33.0373 40.1347 32.9804 40.2834C32.9235 40.4321 32.8364 40.5675 32.7247 40.681C32.613 40.7946 32.479 40.8838 32.3312 40.9431C32.1833 41.0025 32.0248 41.0307 31.8655 41.026Z" fill="#8C6846"/>
</svg>
